<?xml version="1.0" encoding="UTF-8" standalone="no"?> <!-- Created with Vectornator for iOS (http://vectornator.io/) --><!DOCTYPE svg PUBLIC "-//W3C//DTD SVG 1.1//EN" "http://www.w3.org/Graphics/SVG/1.1/DTD/svg11.dtd">
<svg height="100%" style="fill-rule:evenodd;clip-rule:evenodd;stroke-linecap:round;stroke-linejoin:round;" xmlns:xlink="http://www.w3.org/1999/xlink" xmlns="http://www.w3.org/2000/svg" xml:space="preserve" width="100%" xmlns:vectornator="http://vectornator.io" version="1.1" viewBox="0 0 1150 627.49">
<metadata>
<vectornator:setting key="Units" value="Points"/>
<vectornator:setting key="GuidesVisible" value="1"/>
<vectornator:setting key="RulersVisible" value="1"/>
<vectornator:setting key="SnapToGuides" value="1"/>
<vectornator:setting key="DynamicGuides" value="1"/>
</metadata>
<defs/>
<g id="Untitled" vectornator:layerName="Untitled">
<path d="M1137.81+582.18C1133.35+593.194+1127.85+603.761+1121.4+613.74C1118.37+618.499+1115.05+623.064+1111.46+627.41C1111.43+627.454+1111.39+627.494+1111.35+627.53L0+627.53L0.15+627.41C1.15+626.63+7.02+621.88+16.15+613.74C22.7+607.91+30.92+600.33+40.15+591.21C115.64+516.96+260.65+341.21+139.88+180.21C27.61+30.54+148.49+3.37999+228.23+0.209995C258.867-0.990207+289.43+4.00624+318.09+14.9C354.93+28.9+422.26+50.36+509.98+60.2C512.86+60.52+515.76+60.84+518.7+61.13C565.142+65.8587+611.897+66.7083+658.48+63.67L658.48+63.67C659.85+63.59+661.23+63.49+662.62+63.39C708.702+60.1542+754.434+53.0796+799.34+42.24C802.25+41.53+805.12+40.86+807.98+40.19C957.61+5.57+1095.55+123.56+1061.06+256.9C1048.31+306.22+1051.55+358.79+1094.06+401.32C1163.66+470.74+1155.23+539.11+1137.81+582.18Z" opacity="0.1" fill="#fdc80b"/>
<path d="M1137.81+582.18C1133.35+593.194+1127.85+603.761+1121.4+613.74C1118.37+618.499+1115.05+623.064+1111.46+627.41L0.15+627.41C1.15+626.63+7.02+621.88+16.15+613.74C22.7+607.91+30.92+600.33+40.15+591.21L157.28+567.01C158.793+566.698+160.335+566.54+161.88+566.54L286.75+566.36L286.88+566.36L348.73+566.28L348.87+566.28L401.07+566.22L435.24+566.22L435.24+566.22L470.24+566.22L613.66+566.02L613.89+566.02L625+566.02L644.52+566.02L668.89+566.02L675.37+566.02L700+565.74L708.14+565.74L779.78+565.64L802.66+565.64L802.66+565.64L813.66+565.64L813.66+565.64L896.41+565.53L921.05+565.53L999.43+565.42L1065.59+565.34C1067.43+565.341+1069.27+565.559+1071.06+565.99L1137.81+582.18Z" opacity="1" fill="#454b69"/>
<path d="M16.15+613.74L1121.4+613.74C1118.37+618.499+1115.05+623.064+1111.46+627.41L0.15+627.41C1.13+626.58+7+621.83+16.15+613.74Z" opacity="1" fill="none"/>
<path d="M16.15+613.74L1121.4+613.74C1118.37+618.499+1115.05+623.064+1111.46+627.41L0.15+627.41C1.13+626.58+7+621.83+16.15+613.74Z" opacity="0.4" fill="#000000"/>
<path d="M733.22+302.74L731+303.17L630.64+322.45C601.49+328.05+571.92+333.68+542.31+331.53C520.86+329.97+500.82+323.61+480.21+318.03C468.56+314.87+456.21+313.61+452.26+300.57C446.81+282.57+455.68+255.92+457.77+237.68C459.77+219.78+460.95+201.43+457.39+183.74C456.599+179.765+455.557+175.843+454.27+172C450.7+161.41+445.09+150.4+448.12+139.65C450.51+131.12+457.8+125.03+464.62+119.39C477.98+108.39+491.62+96.06+496.92+79.57C499.52+71.57+500.01+62.96+502.81+55.02C508.12+39.92+521.46+28.63+536.3+22.65C551.14+16.67+567.46+15.4+583.47+15.4C597.607+15.4008+611.728+16.3395+625.74+18.21C641.02+20.21+656.44+23.5+669.87+31.08C683.3+38.66+694.62+51.08+697.75+66.22C702.18+87.63+689.88+110.43+696.48+131.22C699.8+141.73+707.48+150.22+712.81+159.84C721.591+176.099+723.395+195.226+717.81+212.84C711.43+232.61+695.81+252.61+703.81+271.78C708.9+283.97+721.9+290.48+730.96+300.14C731.767+301.007+732.52+301.873+733.22+302.74Z" opacity="1" fill="#454b69"/>
<path d="M731+300.22L731+303.17L630.64+322.45C601.49+328.05+571.92+333.68+542.31+331.53C520.86+329.97+500.82+323.61+480.21+318.03C468.56+314.87+456.21+313.61+452.26+300.57C446.81+282.57+455.68+255.92+457.77+237.68C459.77+219.78+490.56+154.43+487+136.74L671+144.74C672.24+154.51+720.87+203.55+717.84+212.92C711.46+232.69+695.84+252.69+703.84+271.86C708.94+284.05+721.94+290.56+731+300.22Z" opacity="0.1" fill="#000000"/>
<path d="M543+250.74C544.09+256.93+544.67+263.74+541.51+269.14C537.3+276.38+528.12+278.69+519.91+280.33L491.41+286.03C489.47+286.42+487.41+286.86+485.96+288.19C484.25+289.72+483.67+292.14+483.42+294.42C482.27+304.74+485.92+314.91+489.25+324.74C495.98+344.65+501.63+364.98+510.14+384.19C518.65+403.4+530.33+421.74+547+434.58C563.67+447.42+585.73+454.26+606.14+449.24C623.92+444.87+638.5+432.32+651.07+419.01C661.44+408.01+671.14+396.01+676.17+381.74C679.64+371.94+680.77+361.5+681.86+351.16C683.547+335.307+685.233+319.453+686.92+303.6C687.71+296.16+688.23+287.79+683.4+282.08C681.28+279.57+678.4+277.9+675.46+276.35C664.52+270.54+653+265.74+642.82+258.74C632.64+251.74+623.61+242.1+620.52+230.14C618.67+222.96+619+215.14+615.85+208.45C612.33+200.95+604.85+195.87+596.85+193.64C588.85+191.41+580.41+191.71+572.17+192.64C563.93+193.57+532.17+195.95+528.76+205.24C526.93+210.24+534.52+220.97+536.32+225.89C539.283+233.958+541.518+242.274+543+250.74Z" opacity="1" fill="#efb7b9"/>
<path d="M543+250.74C544.09+256.93+544.67+263.74+541.51+269.14C537.3+276.38+528.12+278.69+519.91+280.33L491.41+286.03C489.47+286.42+487.41+286.86+485.96+288.19C484.25+289.72+483.67+292.14+483.42+294.42C482.27+304.74+485.92+314.91+489.25+324.74C495.98+344.65+501.63+364.98+510.14+384.19C518.65+403.4+530.33+421.74+547+434.58C563.67+447.42+585.73+454.26+606.14+449.24C623.92+444.87+638.5+432.32+651.07+419.01C661.44+408.01+671.14+396.01+676.17+381.74C679.64+371.94+680.77+361.5+681.86+351.16C683.547+335.307+685.233+319.453+686.92+303.6C687.71+296.16+688.23+287.79+683.4+282.08C681.28+279.57+678.4+277.9+675.46+276.35C664.52+270.54+653+265.74+642.82+258.74C632.64+251.74+623.61+242.1+620.52+230.14C618.67+222.96+619+215.14+615.85+208.45C612.33+200.95+604.85+195.87+596.85+193.64C588.85+191.41+580.41+191.71+572.17+192.64C563.93+193.57+532.17+195.95+528.76+205.24C526.93+210.24+534.52+220.97+536.32+225.89C539.283+233.958+541.518+242.274+543+250.74Z" opacity="0.1" fill="#000000"/>
<path d="M611.59+359.48L628.3+324.1C636.13+307.52+644.13+290.1+643.3+271.79C643.14+268.15+643.1+263.6+646.3+261.95C647.689+261.383+649.203+261.19+650.69+261.39C668.282+262.29+685.642+265.801+702.2+271.81C705.41+272.97+708.7+274.31+710.95+276.87C713.2+279.43+714.11+282.87+714.88+286.17C717.503+297.328+719.417+308.64+720.61+320.04C723.61+348.26+722.12+376.73+720.61+405.04L716.17+491.47C716.194+492.696+715.945+493.912+715.44+495.03C714.34+497.03+711.86+497.7+709.63+498.08C701.04+499.55+692.26+499.25+683.56+498.92C622.36+496.6+560.84+493.04+500.04+500.46C500.313+491.467+500.17+482.467+499.61+473.46C497.2+434.57+487.12+396.63+477.22+358.95C471.45+336.95+465.86+312.95+475.15+292.22C476.516+288.946+478.48+285.955+480.94+283.4C484.89+279.53+490.28+277.49+495.62+276.03C504.831+273.524+514.372+272.445+523.91+272.83L586.96+410.1C589.84+416.38+592.21+422.99+595.08+429.19C597.66+418.48+594.56+405.93+597.66+394.32C601+382.27+606.26+370.74+611.59+359.48Z" opacity="1" fill="#ffffff"/>
<path d="M605+453.93C616.28+454.64+627.24+448.86+635+440.69C642.76+432.52+647.88+422.16+652.21+411.69C658.435+396.766+663.382+381.34+667+365.58C670+352.18+672.13+338.31+670.06+324.73C667.2+305.98+656.59+288.94+654.78+270.06C654.47+266.76+654.67+262.9+657.32+260.91C658.96+259.68+661.12+259.51+663.16+259.39C682.02+258.27+702.74+258.48+717.35+270.45C721.8+274.09+725.41+278.64+729.76+282.39C740.12+291.39+754.76+295.97+761.41+307.92C763.73+312.08+764.84+316.79+766.46+321.27C770.28+331.87+776.89+341.19+783.46+350.36C777.09+377.24+769.77+404.14+763.4+431.02C759.67+446.79+755.91+462.62+750.05+477.72C746.21+487.62+741.38+497.72+742.56+508.32C743.03+512.49+744.42+516.48+745.63+520.5C749.872+534.61+751.859+549.3+751.52+564.03L466.18+564.73C479.85+545.13+483.86+521.09+482.47+497.24C481.8+485.81+479.22+474.31+473.47+464.42C464.41+448.92+448.47+438.82+432.76+430.17C421.76+424.17+409.95+457.93+398.06+454.06C399.98+440.48+400.86+388.06+400.06+374.39C399.8+369.91+399.4+365.31+400.78+361.03C401.72+358.1+403.45+355.48+404.62+352.63C409.31+341.22+404.84+326.63+412.42+316.92C417.66+310.17+426.85+308.25+434.32+304.09C441.99+299.81+447.92+293.09+454.6+287.35C467.707+276.22+483.723+269.069+500.76+266.74C505.73+274.579+508.751+283.494+509.57+292.74C510.08+298.55+509.71+304.44+510.52+310.22C511.63+318.05+514.87+325.4+518.08+332.64C531.45+362.83+544.87+393.11+561.81+421.46C566.6+429.46+571.81+437.46+578.75+443.69C585.69+449.92+595.68+454.37+605+453.93Z" opacity="1" fill="#682544"/>
<path d="M605+453.93C616.28+454.64+627.24+448.86+635+440.69C642.76+432.52+647.88+422.16+652.21+411.69C658.435+396.766+663.382+381.34+667+365.58C670+352.18+672.13+338.31+670.06+324.73C667.2+305.98+656.59+288.94+654.78+270.06C654.47+266.76+654.67+262.9+657.32+260.91C658.96+259.68+661.12+259.51+663.16+259.39C682.02+258.27+702.74+258.48+717.35+270.45C721.8+274.09+725.41+278.64+729.76+282.39C740.12+291.39+754.76+295.97+761.41+307.92C763.73+312.08+764.84+316.79+766.46+321.27C770.28+331.87+776.89+341.19+783.46+350.36C777.09+377.24+769.77+404.14+763.4+431.02C759.67+446.79+755.91+462.62+750.05+477.72C746.21+487.62+741.38+497.72+742.56+508.32C743.03+512.49+744.42+516.48+745.63+520.5C749.872+534.61+751.859+549.3+751.52+564.03L466.18+564.73C479.85+545.13+483.86+521.09+482.47+497.24C481.8+485.81+479.22+474.31+473.47+464.42C464.41+448.92+448.47+438.82+432.76+430.17C421.76+424.17+409.95+457.93+398.06+454.06C399.98+440.48+400.86+388.06+400.06+374.39C399.8+369.91+399.4+365.31+400.78+361.03C401.72+358.1+403.45+355.48+404.62+352.63C409.31+341.22+404.84+326.63+412.42+316.92C417.66+310.17+426.85+308.25+434.32+304.09C441.99+299.81+447.92+293.09+454.6+287.35C467.707+276.22+483.723+269.069+500.76+266.74C505.73+274.579+508.751+283.494+509.57+292.74C510.08+298.55+509.71+304.44+510.52+310.22C511.63+318.05+514.87+325.4+518.08+332.64C531.45+362.83+544.87+393.11+561.81+421.46C566.6+429.46+571.81+437.46+578.75+443.69C585.69+449.92+595.68+454.37+605+453.93Z" opacity="0.1" fill="#000000"/>
<path d="M504.19+162.75C504.19+115.408+542.568+77.03+589.91+77.03C637.252+77.03+675.63+115.408+675.63+162.75C675.63+210.092+637.252+248.47+589.91+248.47C542.568+248.47+504.19+210.092+504.19+162.75Z" opacity="1" fill="#efb7b9"/>
<path d="M544.93+276.98C547.28+254.8+538.06+233.1+527.62+213.39C522.62+203.97+517.26+194.58+514.75+184.23C512.24+173.88+512.96+162.16+519.38+153.65C524.84+146.41+533.5+142.5+541.51+138.25C564.12+126.25+584.79+108.61+594.73+85.02C589.11+88.08+590.57+97.21+595.53+101.24C600.49+105.27+607.25+106.05+613.35+107.97C635.59+114.97+648.93+137.15+659.63+157.87C661.38+161.25+663.16+164.82+663.14+168.63C663.12+172.44+661.38+175.82+659.56+179.06C654.28+188.46+647.82+197.49+645.42+208C642.67+220+645.57+232.62+649.34+244.39C653.34+256.91+658.65+269.53+668.25+278.51C677.85+287.49+692.74+291.95+704.55+286.15C692.76+265.88+680.55+243.23+685.15+220.25C687.37+209.25+693.34+199.25+695.88+188.31C700.72+167.44+692.66+145.97+684.75+126.05L661.11+66.6C657.5+57.51+653.39+47.81+645.11+42.66C639.51+39.19+632.73+38.29+626.17+37.66C605.05+35.78+583.17+36.4+563.51+44.26C527.69+58.57+505.23+93.85+487.41+128.07C482.07+138.32+476.8+149.21+477.02+160.77C477.14+167.11+478.91+173.28+480.35+179.46C486.21+204.62+486.53+230.69+486.83+256.52C487.06+276.34+486.03+295.02+477.36+313.07C489.24+315.43+506.47+321.8+518.23+317.14C533.56+311.08+543+292.41+544.93+276.98Z" opacity="1" fill="#454b69"/>
<g opacity="0.1">
<path d="M486.78+256.1C486.82+253.28+486.82+250.433+486.78+247.56C486.48+221.73+486.16+195.66+480.3+170.5C478.991+165.604+477.969+160.635+477.24+155.62C477.034+157.342+476.944+159.076+476.97+160.81C477.09+167.15+478.86+173.32+480.3+179.5C486.13+204.51+486.49+230.42+486.78+256.1Z" opacity="0.1" fill="#000000"/>
<path d="M695.88+188.31C697.193+182.467+697.631+176.462+697.18+170.49C696.984+173.46+696.549+176.41+695.88+179.31C693.34+190.31+687.37+200.22+685.15+211.25C684.193+216.115+683.924+221.09+684.35+226.03C684.509+224.09+684.776+222.16+685.15+220.25C687.37+209.22+693.34+199.27+695.88+188.31Z" opacity="0.1" fill="#000000"/>
<path d="M662.36+164.04C662.848+162.62+663.111+161.132+663.14+159.63C663.14+155.82+661.38+152.25+659.63+148.87C648.93+128.15+635.63+105.99+613.35+98.97C607.25+97.05+600.5+96.27+595.53+92.24C592.946+90.0149+591.367+86.8429+591.15+83.44C580.31+103.34+561.69+118.56+541.51+129.25C533.51+133.5+524.84+137.41+519.38+144.65C514.25+151.45+512.76+160.3+513.65+168.86C514.154+163.366+516.134+158.111+519.38+153.65C524.84+146.41+533.5+142.5+541.51+138.25C561.69+127.56+580.31+112.34+591.15+92.44C591.367+95.8429+592.946+99.0149+595.53+101.24C600.53+105.24+607.25+106.05+613.35+107.97C635.59+114.97+648.93+137.15+659.63+157.87C660.715+159.845+661.628+161.909+662.36+164.04Z" opacity="0.1" fill="#000000"/>
<path d="M668.25+269.51C658.65+260.51+653.36+247.91+649.34+235.39C646.928+228.357+645.318+221.074+644.54+213.68C643.61+223.95+646.16+234.46+649.34+244.39C653.34+256.91+658.65+269.53+668.25+278.51C677.85+287.49+692.74+291.95+704.55+286.15C703.13+283.72+701.72+281.25+700.32+278.76C689.35+281.85+676.75+277.45+668.25+269.51Z" opacity="0.1" fill="#000000"/>
<path d="M544.93+267.98C543+283.41+533.56+302.08+518.19+308.18C507.52+312.41+492.33+307.55+480.74+304.86C479.743+307.667+478.601+310.421+477.32+313.11C489.2+315.47+506.43+321.84+518.19+317.18C533.56+311.08+543+292.41+544.93+276.98C545.328+273.12+545.401+269.233+545.15+265.36C545.09+266.23+545+267.11+544.93+267.98Z" opacity="0.1" fill="#000000"/>
</g>
<path d="M666.1+515.92C650.65+513.47+634.97+508.74+619.65+511.92C610.77+513.76+602.65+518.18+595.27+523.52C599.33+526.77+604.07+529.67+606.65+534.19C608.251+537.317+609.454+540.633+610.23+544.06C611.85+550.06+613.48+556.18+613.73+562.42C613.98+568.66+612.73+575.16+609.01+580.19C628.49+582.11+647.37+577.31+666.37+572.62C668.543+572.239+670.611+571.404+672.44+570.17C675.44+567.81+676.32+563.61+676.34+559.78C676.34+552.94+674.42+546.27+672.47+539.71C670.15+531.84+668.43+523.74+666.1+515.92Z" opacity="1" fill="#ffffff"/>
<path d="M770.42+347.25C778.09+348.25+784.04+354.44+788.42+360.8C800.71+378.5+806.01+399.96+811.91+420.69C819.243+446.47+827.867+471.843+837.78+496.81C839.914+502.576+842.509+508.161+845.54+513.51C848.01+517.64+851.01+521.61+852.1+526.3C854.74+537.64+845.39+548.3+835.64+554.62C830.443+558.123+824.768+560.858+818.79+562.74C812.97+564.48+806.9+565.14+800.87+565.8L745.36+571.8C719.81+574.58+694.03+577.36+668.47+574.68C666.86+569.08+670.02+565.12+669.79+559.29C669.63+555.12+667.79+551.24+666.15+547.4C663.126+540.561+661.128+533.313+660.22+525.89C659.93+523.16+659.83+520.36+658.79+517.82C657.75+515.28+655.52+513+652.79+512.82C667.79+511.33+679.18+508.5+694.18+507C699.75+506.44+705.54+505.81+710.29+502.85C716.18+499.18+719.48+492.56+722.1+486.14C728.59+470.24+732.77+452.72+729.36+435.88C726.56+422.07+718.75+409.21+718.79+395.12C718.79+386.73+721.65+378.6+725.03+370.92C728.61+362.8+733.28+354.5+741.14+350.38C749+346.26+761.55+346.05+770.42+347.25Z" opacity="1" fill="#682544"/>
<path d="M770.42+347.25C778.09+348.25+784.04+354.44+788.42+360.8C800.71+378.5+806.01+399.96+811.91+420.69C819.243+446.47+827.867+471.843+837.78+496.81C839.914+502.576+842.509+508.161+845.54+513.51C848.01+517.64+851.01+521.61+852.1+526.3C854.74+537.64+845.39+548.3+835.64+554.62C830.443+558.123+824.768+560.858+818.79+562.74C812.97+564.48+806.9+565.14+800.87+565.8L745.36+571.8C719.81+574.58+694.03+577.36+668.47+574.68C666.86+569.08+670.02+565.12+669.79+559.29C669.63+555.12+667.79+551.24+666.15+547.4C663.126+540.561+661.128+533.313+660.22+525.89C659.93+523.16+659.83+520.36+658.79+517.82C657.75+515.28+655.52+513+652.79+512.82C667.79+511.33+679.18+508.5+694.18+507C699.75+506.44+705.54+505.81+710.29+502.85C716.18+499.18+719.48+492.56+722.1+486.14C728.59+470.24+732.77+452.72+729.36+435.88C726.56+422.07+718.75+409.21+718.79+395.12C718.79+386.73+721.65+378.6+725.03+370.92C728.61+362.8+733.28+354.5+741.14+350.38C749+346.26+761.55+346.05+770.42+347.25Z" opacity="0.08" fill="#000000"/>
<path d="M422.81+334.26C426.44+325.64+430.13+316.74+430.23+307.39C430.34+297.28+426.23+287.68+423.09+278.08C419.207+266.334+416.622+254.199+415.38+241.89C415.122+240.711+415.3+239.478+415.88+238.42C416.71+237.25+418.31+237.01+419.72+236.7C426.64+235.12+431.87+229.53+436.19+223.9C442.892+215.205+448.551+205.754+453.05+195.74C456.36+188.37+460.84+179.38+468.92+179.31C465.667+194.589+461.635+209.692+456.84+224.56C465.29+222.4+473.32+219.26+481.77+217.1C483.424+216.578+485.157+216.347+486.89+216.42C491.95+216.95+495.05+223.8+492.11+227.95C496.24+232.79+503.11+234.09+508.51+237.41C513.91+240.73+517.79+248.95+512.99+253.12C512.05+253.93+510.86+254.5+510.18+255.54C507.86+259.12+513.54+263.23+513.07+267.47C512.69+270.94+508.24+272.56+504.87+271.64C501.5+270.72+498.87+268.2+495.87+266.35C492.87+264.5+488.95+263.35+486.04+265.27C485.26+274.68+484.42+284.27+480.35+292.84C478.86+295.97+476.95+298.9+475.75+302.15C474.602+305.694+473.89+309.364+473.63+313.08L470+346.27C452.68+349.74+437.15+344.55+422.81+334.26Z" opacity="1" fill="#efb7b9"/>
<path d="M418.58+364.01L415.39+342.42C415.085+340.662+414.915+338.884+414.88+337.1C414.88+332.1+417.08+327.33+419.21+322.78C436.86+331.02+455.94+333.95+475.41+333.96C477.98+333.96+480.91+333.72+482.51+331.71C485.82+335.52+485.92+341.65+484.51+346.49C483.1+351.33+480.39+355.69+478.59+360.41C477.68+362.8+476.94+365.41+475.2+367.25C472.5+370.16+468.12+370.66+464.14+370.64C459.953+370.614+455.777+370.215+451.66+369.45C441+367.47+429.24+362.1+418.58+364.01Z" opacity="1" fill="#ffffff"/>
<path d="M484.41+363.13C470.71+361.57+457.1+359.37+443.58+356.53C436.95+355.14+430.26+353.59+423.5+353.86C419.1+354.04+414.37+354.92+410.5+352.74C414.27+365.57+414.5+379.09+409.99+391.68C407.32+399.18+403.25+406.17+401.29+413.89C397.21+430.04+402.81+447.65+397.71+463.51C397.171+465.583+396.11+467.483+394.63+469.03C393.07+470.46+390.94+471.2+389.5+472.75C387.38+475.03+387.25+478.46+387.24+481.57L387.15+509.12C387.09+526.66+387.32+545.26+396.58+560.12C407.14+577.12+429.37+585.93+448.72+580.76C453.865+579.444+458.685+577.086+462.88+573.83C469.6+568.49+473.88+560.77+478.07+553.25C483.07+544.25+488.07+535.05+489.68+524.92C490.82+517.75+490.18+510.43+489.36+503.22C484.84+463.22+475.03+423.56+477.14+383.41C477.456+376.07+479.991+368.999+484.41+363.13Z" opacity="1" fill="#632240"/>
<path d="M541.67+529.13C534.72+529.53+527.72+529.93+520.8+529.13C515.8+528.53+510.92+527.3+505.96+526.46C478.548+522.033+450.57+529.806+429.37+547.74C425.53+551.02+421.65+556.05+423.77+560.64C426.05+565.58+433.02+565.44+438.39+564.52C432.594+567.288+427.474+571.292+423.39+576.25C421.89+578.08+420.47+580.25+420.76+582.62C421.37+587.57+428.09+588.47+433.06+588.04C431.44+589.78+432.53+592.86+434.59+594.04C436.65+595.22+439.21+594.98+441.54+594.55C446.691+593.607+451.668+591.884+456.3+589.44C455.36+591.89+456.99+594.76+459.3+595.98C461.61+597.2+464.42+597.11+467.01+596.69C479.23+594.69+489.43+586.19+501.35+582.85C520.41+577.52+540.35+586.02+560.16+586.62C566.36+586.81+572.72+586.18+578.37+583.62C585.3+580.47+590.89+574.56+598.21+572.46C606.34+570.14+615.67+572.81+623.11+568.8C628.52+565.89+623.64+543.46+622.26+539.14C619.73+531.24+617.19+526+608.76+525.2C587.43+523.11+563.16+527.89+541.67+529.13Z" opacity="1" fill="#efb7b9"/>
<path d="M594.88+523.01C594.88+523.01+627.17+550.34+608.54+580.16L644.54+567.73L644.54+541.64C644.54+540.4+630.87+521.77+630.87+521.77L614.72+519.28L594.88+523.01Z" opacity="1" fill="#ffffff"/>
<path d="M256.79+521.32L268.9+521.32C282.707+521.32+293.9+532.513+293.9+546.32L293.9+583.43L293.9+583.43L231.79+583.43L231.79+583.43L231.79+546.32C231.79+532.513+242.983+521.32+256.79+521.32Z" opacity="1" fill="#3f3d56"/>
<path d="M256.79+521.32L268.9+521.32C282.707+521.32+293.9+532.513+293.9+546.32L293.9+583.43L293.9+583.43L231.79+583.43L231.79+583.43L231.79+546.32C231.79+532.513+242.983+521.32+256.79+521.32Z" opacity="0.1" fill="#000000"/>
<path d="M255.39+530.01C255.39+527.265+257.615+525.04+260.36+525.04C263.105+525.04+265.33+527.265+265.33+530.01C265.33+532.755+263.105+534.98+260.36+534.98C257.615+534.98+255.39+532.755+255.39+530.01Z" opacity="1" fill="#3f3d56"/>
<path d="M255.39+523.8C255.39+521.055+257.615+518.83+260.36+518.83C263.105+518.83+265.33+521.055+265.33+523.8C265.33+526.545+263.105+528.77+260.36+528.77C257.615+528.77+255.39+526.545+255.39+523.8Z" opacity="1" fill="#3f3d56"/>
<path d="M255.39+517.59C255.39+514.845+257.615+512.62+260.36+512.62C263.105+512.62+265.33+514.845+265.33+517.59C265.33+520.335+263.105+522.56+260.36+522.56C257.615+522.56+255.39+520.335+255.39+517.59Z" opacity="1" fill="#3f3d56"/>
<path d="M255.39+511.38C255.39+508.635+257.615+506.41+260.36+506.41C263.105+506.41+265.33+508.635+265.33+511.38C265.33+514.125+263.105+516.35+260.36+516.35C257.615+516.35+255.39+514.125+255.39+511.38Z" opacity="1" fill="#3f3d56"/>
<path d="M255.39+505.17C255.39+502.425+257.615+500.2+260.36+500.2C263.105+500.2+265.33+502.425+265.33+505.17C265.33+507.915+263.105+510.14+260.36+510.14C257.615+510.14+255.39+507.915+255.39+505.17Z" opacity="1" fill="#3f3d56"/>
<path d="M255.39+498.96C255.39+496.215+257.615+493.99+260.36+493.99C263.105+493.99+265.33+496.215+265.33+498.96C265.33+501.705+263.105+503.93+260.36+503.93C257.615+503.93+255.39+501.705+255.39+498.96Z" opacity="1" fill="#3f3d56"/>
<path d="M255.39+492.74C255.39+489.995+257.615+487.77+260.36+487.77C263.105+487.77+265.33+489.995+265.33+492.74C265.33+495.485+263.105+497.71+260.36+497.71C257.615+497.71+255.39+495.485+255.39+492.74Z" opacity="1" fill="#3f3d56"/>
<path d="M262.85+495.23C262.85+492.485+265.075+490.26+267.82+490.26C270.565+490.26+272.79+492.485+272.79+495.23C272.79+497.975+270.565+500.2+267.82+500.2C265.075+500.2+262.85+497.975+262.85+495.23Z" opacity="1" fill="#3f3d56"/>
<path d="M267.82+492.74C267.82+489.995+270.045+487.77+272.79+487.77C275.535+487.77+277.76+489.995+277.76+492.74C277.76+495.485+275.535+497.71+272.79+497.71C270.045+497.71+267.82+495.485+267.82+492.74Z" opacity="1" fill="#3f3d56"/>
<path d="M272.79+490.26C272.79+487.515+275.015+485.29+277.76+485.29C280.505+485.29+282.73+487.515+282.73+490.26C282.73+493.005+280.505+495.23+277.76+495.23C275.015+495.23+272.79+493.005+272.79+490.26Z" opacity="1" fill="#3f3d56"/>
<path d="M255.39+486.53C255.39+483.785+257.615+481.56+260.36+481.56C263.105+481.56+265.33+483.785+265.33+486.53C265.33+489.275+263.105+491.5+260.36+491.5C257.615+491.5+255.39+489.275+255.39+486.53Z" opacity="1" fill="#3f3d56"/>
<path d="M255.39+480.32C255.39+477.575+257.615+475.35+260.36+475.35C263.105+475.35+265.33+477.575+265.33+480.32C265.33+483.065+263.105+485.29+260.36+485.29C257.615+485.29+255.39+483.065+255.39+480.32Z" opacity="1" fill="#3f3d56"/>
<path d="M255.39+474.11C255.39+471.365+257.615+469.14+260.36+469.14C263.105+469.14+265.33+471.365+265.33+474.11C265.33+476.855+263.105+479.08+260.36+479.08C257.615+479.08+255.39+476.855+255.39+474.11Z" opacity="1" fill="#3f3d56"/>
<path d="M255.39+467.9C255.39+465.155+257.615+462.93+260.36+462.93C263.105+462.93+265.33+465.155+265.33+467.9C265.33+470.645+263.105+472.87+260.36+472.87C257.615+472.87+255.39+470.645+255.39+467.9Z" opacity="1" fill="#3f3d56"/>
<path d="M281+451.87C279.76+452.05+278.52+452.18+277.28+452.26C278.433+451.254+279.503+450.157+280.48+448.98C279.791+446.892+278.779+444.924+277.48+443.15C276.248+443.842+274.886+444.271+273.48+444.41C272.25+444.59+271.01+444.72+269.77+444.81C271.4+443.48+272.92+441.48+274.52+439.81C267.132+433.114+256.065+432.503+247.985+438.347C239.905+444.19+237.019+454.892+241.065+464.005C245.111+473.119+254.984+478.156+264.738+476.083C274.491+474.009+281.461+465.391+281.45+455.42C281.45+454.203+281.343+452.988+281.13+451.79L281+451.87Z" opacity="1" fill="#eec11f"/>
<path d="M297.57+476.56C296.303+477.34+294.872+477.816+293.39+477.95C292.16+478.13+290.92+478.27+289.68+478.35C290.998+477.168+292.228+475.891+293.36+474.53C287.151+472.911+280.729+476.281+278.533+482.31C276.337+488.34+279.087+495.051+284.883+497.804C290.68+500.558+297.619+498.451+300.906+492.939C304.193+487.428+302.748+480.321+297.57+476.53L297.57+476.56Z" opacity="1" fill="#fdc80b"/>
<path d="M247.94+495.23C247.94+492.485+250.165+490.26+252.91+490.26C255.655+490.26+257.88+492.485+257.88+495.23C257.88+497.975+255.655+500.2+252.91+500.2C250.165+500.2+247.94+497.975+247.94+495.23Z" opacity="1" fill="#3f3d56"/>
<path d="M242.97+492.74C242.97+489.995+245.195+487.77+247.94+487.77C250.685+487.77+252.91+489.995+252.91+492.74C252.91+495.485+250.685+497.71+247.94+497.71C245.195+497.71+242.97+495.485+242.97+492.74Z" opacity="1" fill="#3f3d56"/>
<path d="M238+490.26C238+487.515+240.225+485.29+242.97+485.29C245.715+485.29+247.94+487.515+247.94+490.26C247.94+493.005+245.715+495.23+242.97+495.23C240.225+495.23+238+493.005+238+490.26Z" opacity="1" fill="#3f3d56"/>
<path d="M223.16+476.56C224.427+477.34+225.858+477.816+227.34+477.95C228.57+478.13+229.81+478.27+231.05+478.35C229.73+477.17+228.499+475.894+227.37+474.53C233.579+472.911+240.001+476.281+242.197+482.31C244.393+488.34+241.643+495.051+235.847+497.804C230.05+500.558+223.111+498.451+219.824+492.939C216.537+487.428+217.982+480.321+223.16+476.53L223.16+476.56Z" opacity="1" fill="#fdc80b"/>
<path d="M256.79+525L268.9+525C282.707+525+293.9+536.193+293.9+550L293.9+582.87C293.9+585.212+292.002+587.11+289.66+587.11L236+587.11C233.658+587.11+231.76+585.212+231.76+582.87L231.76+550C231.76+543.364+234.398+537.001+239.093+532.312C243.788+527.622+250.154+524.992+256.79+525Z" opacity="1" fill="#3f3d56"/>
<g opacity="0.1">
<path d="M281.34+453.23C280.837+453.768+280.303+454.275+279.74+454.75C280.31+454.75+280.87+454.66+281.44+454.6C281.42+454.14+281.39+453.68+281.34+453.23Z" opacity="0.1" fill="#000000"/>
<path d="M272.28+447.29C273.53+447.21+274.76+447.08+276+446.9C277.112+446.759+278.2+446.463+279.23+446.02C278.724+445.02+278.142+444.061+277.49+443.15C276.868+443.529+276.194+443.815+275.49+444C274.509+445.18+273.436+446.281+272.28+447.29Z" opacity="0.1" fill="#000000"/>
<path d="M241.73+457.96C241.715+450.237+245.924+443.124+252.701+439.42C259.479+435.717+267.738+436.016+274.23+440.2L274.55+439.86C268.891+434.825+260.967+433.209+253.788+435.628C246.61+438.046+241.278+444.127+239.819+451.56C238.36+458.993+240.998+466.638+246.73+471.59C243.496+467.786+241.723+462.953+241.73+457.96Z" opacity="0.1" fill="#000000"/>
</g>
<g opacity="0.1">
<path d="M289.68+480.83C290.92+480.75+292.16+480.62+293.39+480.44C294.873+480.302+296.303+479.823+297.57+479.04C300.41+481.131+302.227+484.33+302.57+487.84C302.618+487.405+302.642+486.968+302.64+486.53C302.659+482.591+300.803+478.878+297.64+476.53C296.373+477.31+294.942+477.786+293.46+477.92L292.46+478.05C291.607+479.047+290.677+479.977+289.68+480.83Z" opacity="0.1" fill="#000000"/>
<path d="M290.18+476.59C290.595+476.595+291.009+476.625+291.42+476.68C292.07+475.99+292.71+475.25+293.36+474.53C289.634+473.535+285.657+474.33+282.6+476.681C279.543+479.033+277.754+482.673+277.76+486.53C277.76+486.95+277.76+487.36+277.82+487.77C278.457+481.422+283.8+476.589+290.18+476.59Z" opacity="0.1" fill="#000000"/>
</g>
<g opacity="0.1">
<path d="M231.05+480.83C229.81+480.75+228.57+480.62+227.34+480.44C225.857+480.302+224.427+479.823+223.16+479.04C220.32+481.131+218.503+484.33+218.16+487.84C218.111+487.405+218.088+486.968+218.09+486.53C218.071+482.591+219.927+478.878+223.09+476.53C224.357+477.31+225.788+477.786+227.27+477.92L228.27+478.05C229.118+479.052+230.048+479.982+231.05+480.83Z" opacity="0.1" fill="#000000"/>
<path d="M230.55+476.59C230.132+476.595+229.715+476.625+229.3+476.68C228.66+475.99+228.02+475.25+227.37+474.53C231.096+473.535+235.073+474.33+238.13+476.681C241.187+479.033+242.976+482.673+242.97+486.53C242.97+486.95+242.97+487.36+242.91+487.77C242.273+481.422+236.93+476.589+230.55+476.59Z" opacity="0.1" fill="#000000"/>
</g>
<path d="M196.85+599.13L99.15+599.13C96.858+599.13+95+597.272+95+594.98L95+548.74C94.9996+547.317+95.7288+545.992+96.9319+545.231C98.135+544.471+99.6441+544.379+100.93+544.99C129+558.31+159.24+562.88+194.93+545.2C196.216+544.566+197.738+544.639+198.958+545.393C200.178+546.147+200.923+547.476+200.93+548.91L200.93+594.91C200.969+597.202+199.142+599.092+196.85+599.13Z" opacity="1" fill="#e9c20e"/>
<path d="M196.85+599.13L99.15+599.13C96.858+599.13+95+597.272+95+594.98L95+548.74C94.9996+547.317+95.7288+545.992+96.9319+545.231C98.135+544.471+99.6441+544.379+100.93+544.99C119.19+553.655+138.368+558.617+159.367+556.16C170.649+554.84+182.457+551.379+194.93+545.2C196.216+544.566+197.738+544.639+198.958+545.393C200.178+546.147+200.923+547.476+200.93+548.91L200.93+594.91C200.969+597.202+199.142+599.092+196.85+599.13Z" opacity="0.1" fill="#c90f0f"/>
<path d="M141.54+556.41C141.54+552.229+144.128+548.84+147.32+548.84C150.512+548.84+153.1+552.229+153.1+556.41C153.1+560.591+150.512+563.98+147.32+563.98C144.128+563.98+141.54+560.591+141.54+556.41Z" opacity="1" fill="#3f3d56"/>
<path d="M141.54+547.16C141.54+542.979+144.128+539.59+147.32+539.59C150.512+539.59+153.1+542.979+153.1+547.16C153.1+551.341+150.512+554.73+147.32+554.73C144.128+554.73+141.54+551.341+141.54+547.16Z" opacity="1" fill="#3f3d56"/>
<path d="M141.54+537.9C141.54+533.719+144.128+530.33+147.32+530.33C150.512+530.33+153.1+533.719+153.1+537.9C153.1+542.081+150.512+545.47+147.32+545.47C144.128+545.47+141.54+542.081+141.54+537.9Z" opacity="1" fill="#3f3d56"/>
<path d="M141.54+528.65C141.54+524.469+144.128+521.08+147.32+521.08C150.512+521.08+153.1+524.469+153.1+528.65C153.1+532.831+150.512+536.22+147.32+536.22C144.128+536.22+141.54+532.831+141.54+528.65Z" opacity="1" fill="#3f3d56"/>
<path d="M141.54+519.39C141.54+515.209+144.128+511.82+147.32+511.82C150.512+511.82+153.1+515.209+153.1+519.39C153.1+523.571+150.512+526.96+147.32+526.96C144.128+526.96+141.54+523.571+141.54+519.39Z" opacity="1" fill="#3f3d56"/>
<path d="M141.54+510.13C141.54+505.949+144.128+502.56+147.32+502.56C150.512+502.56+153.1+505.949+153.1+510.13C153.1+514.311+150.512+517.7+147.32+517.7C144.128+517.7+141.54+514.311+141.54+510.13Z" opacity="1" fill="#3f3d56"/>
<path d="M141.54+500.88C141.54+496.699+144.128+493.31+147.32+493.31C150.512+493.31+153.1+496.699+153.1+500.88C153.1+505.061+150.512+508.45+147.32+508.45C144.128+508.45+141.54+505.061+141.54+500.88Z" opacity="1" fill="#3f3d56"/>
<path d="M169+437.54C169.785+436.531+170.503+435.472+171.15+434.37L155.95+431.87L172.39+431.99C175.596+425.044+175.788+417.082+172.92+409.99L150.87+421.43L171.21+406.43C166.019+397.452+156.249+392.125+145.891+392.623C135.533+393.121+126.319+399.361+122.013+408.795C117.707+418.229+119.03+429.278+125.44+437.43C124.204+438.992+123.145+440.686+122.28+442.48L142+452.84L121+445.74C118.01+454.606+119.691+464.382+125.47+471.74C116.535+483.1+117.831+499.419+128.448+509.226C139.065+519.033+155.435+519.033+166.052+509.226C176.669+499.419+177.965+483.1+169.03+471.74C176.935+461.688+176.935+447.532+169.03+437.48L169+437.54Z" opacity="1" fill="#fdc80b"/>
<path d="M119.49+454.67C119.481+460.885+121.57+466.921+125.42+471.8C116.485+483.16+117.781+499.479+128.398+509.286C139.015+519.093+155.385+519.093+166.002+509.286C176.619+499.479+177.915+483.16+168.98+471.8C172.69+467.09+119.49+451.56+119.49+454.67Z" opacity="0.1" fill="#000000"/>
<path d="M196.85+601.58L99.15+601.58C96.858+601.58+95+599.722+95+597.43L95+548.74C94.9996+547.317+95.7288+545.992+96.9319+545.231C98.135+544.471+99.6441+544.379+100.93+544.99C129+558.31+151.26+573.84+194.93+545.2C197.52+543.5+200.93+545.82+200.93+548.91L200.93+597.41C200.941+599.683+199.122+601.542+196.85+601.58Z" opacity="1" fill="#a07e02"/>
<path d="M921.83+587.81L777.69+606.88L770.48+607.83L700.01+570.19L700.01+561.38L920.23+537.36L921.83+587.81Z" opacity="1" fill="#9c9ca1"/>
<path d="M740.85+574.19L897+555.78L895.4+584.61L773.77+593.53L740.85+574.19Z" opacity="1" fill="#939498"/>
<path d="M777.69+597.41L777.69+606.87L770.48+607.87L700+570.19L700+561.38L767.27+597.38C767.27+597.38+776.09+598.21+777.69+597.41Z" opacity="0.4" fill="#000000"/>
<path d="M805.36+447.26L773+597.31C772.338+600.359+773.202+603.539+775.315+605.833C777.429+608.128+780.527+609.25+783.62+608.84L988.35+581.74C991.989+581.26+995.034+578.744+996.19+575.26L1040.36+442.06C1041.35+439.06+1040.8+435.764+1038.89+433.247C1036.98+430.73+1033.96+429.314+1030.8+429.46L814.28+439.74C809.95+439.945+806.294+443.027+805.36+447.26Z" opacity="1" fill="#3f3d56"/>
<path d="M911.387+510.684C908.316+510.361+906.234+506.226+906.737+501.447C907.239+496.669+910.135+493.057+913.205+493.379C916.276+493.702+918.358+497.838+917.855+502.616C917.353+507.395+914.457+511.007+911.387+510.684Z" opacity="1" fill="#ffffff"/>
</g>
</svg>
